<?xml version="1.0" encoding="utf-8"?>
<!-- Generator: Adobe Illustrator 21.1.0, SVG Export Plug-In . SVG Version: 6.00 Build 0)  -->
<svg version="1.1" id="Capa_1" xmlns="http://www.w3.org/2000/svg" xmlns:xlink="http://www.w3.org/1999/xlink" x="0px" y="0px"
	 viewBox="0 0 561.3 663.8" style="enable-background:new 0 0 561.3 663.8;" xml:space="preserve">
<style type="text/css">
	.st0{fill:#2C2C2C;}
</style>
<title>logo</title>
<path class="st0" d="M497.7,384c0,119.8-97.1,216.9-216.9,216.9S64,503.7,64,384v-93.8c0-17.1-13.9-31-31-31c-17.1,0-31,13.9-31,31
	V384c0,154,124.9,278.9,278.9,278.9S559.7,538,559.7,384L559,211.2C559,96.4,465.9,3.3,351.1,3.3S143.1,96.4,143.1,211.2v185.5
	c0,76.1,61.7,137.7,137.7,137.7s137.7-61.7,137.7-137.7c0-76-61.6-137.7-137.7-137.7c-16.7,0-30.2,13.5-30.2,30.2
	c0,16.7,13.5,30.2,30.2,30.2c42.7,0,77.3,34.6,77.3,77.3S323.6,474,280.9,474c-42.7,0-77.3-34.6-77.3-77.3l0,0V211.2
	c0-81.2,65.9-146.7,147.1-146.7c81.2,0,147.1,65.9,147.1,147.1V384z"/>
</svg>
